<svg xmlns="http://www.w3.org/2000/svg" fill="none" viewBox="0 0 24 24" id="MailCheck">
  <path fill="#fe9526" d="M21 13C21.55 13 22 12.55 22 12V8C22 6.35 20.65 5 19 5H5C3.35 5 2 6.35 2 8V16C2 17.65 3.35 19 5 19H11C11.55 19 12 18.55 12 18C12 15.24 14.24 13 17 13H21ZM12.36 12.92C12.24 12.97 12.12 12.99 11.99 12.99C11.86 12.99 11.74 12.97 11.62 12.92L6.62 10.92C6.11 10.71 5.86 10.13 6.06 9.62C6.27 9.11 6.85 8.86 7.36 9.06L11.99 10.91L16.63 9.05C17.14 8.85 17.72 9.1 17.93 9.61C18.13 10.12 17.88 10.7 17.37 10.91L12.36 12.92ZM21.89 16.15L17.65 20.39C17.45 20.59 17.2 20.68 16.94 20.68C16.68 20.68 16.43 20.58 16.23 20.39L14.11 18.27C13.72 17.88 13.72 17.25 14.11 16.86C14.5 16.47 15.13 16.47 15.52 16.86L16.93 18.27L20.47 14.73C20.86 14.34 21.49 14.34 21.88 14.73C22.27 15.12 22.27 15.75 21.88 16.14L21.89 16.15Z" class="colorfa3277 svgShape"></path>
</svg>
